<mxfile modified="2022-05-04T21:58:38.557Z" host="app.diagrams.net" agent="5.0 (Windows NT 10.0; Win64; x64) AppleWebKit/537.36 (KHTML, like Gecko) Chrome/100.0.4896.127 Safari/537.36 Edg/100.0.1185.50" etag="FRh-ypXpzgBSjAE069ab" compressed="false" version="17.5.0" type="google">
  <diagram id="DpCtmNxSetKU9kfg4X46" name="Testing/Types">
    <mxGraphModel grid="1" page="1" gridSize="10" guides="1" tooltips="1" connect="1" arrows="1" fold="1" pageScale="1" pageWidth="827" pageHeight="1169" math="0" shadow="0">
      <root>
        <mxCell id="MHrPchpe5pD9uzdOe4e_-0" />
        <mxCell id="MHrPchpe5pD9uzdOe4e_-1" value="About" parent="MHrPchpe5pD9uzdOe4e_-0" />
        <mxCell id="XQVo9xtHHpdXn1KIrFOA-3" value="" style="group" vertex="1" connectable="0" parent="MHrPchpe5pD9uzdOe4e_-1">
          <mxGeometry x="120" y="170" width="560" height="50" as="geometry" />
        </mxCell>
        <mxCell id="09VyEF1zKlPzfJpI-yBH-2" value="Title/Page" visible="0" parent="MHrPchpe5pD9uzdOe4e_-0" />
        <mxCell id="XQVo9xtHHpdXn1KIrFOA-0" value="" style="group;fontSize=10;" connectable="0" vertex="1" parent="09VyEF1zKlPzfJpI-yBH-2">
          <mxGeometry x="120" y="120" width="560" height="45" as="geometry" />
        </mxCell>
        <mxCell id="XQVo9xtHHpdXn1KIrFOA-1" value="&lt;font style=&quot;font-size: 12px&quot;&gt;Base Logical Module - Testing - Automated System Test Types&lt;/font&gt;" style="text;strokeColor=none;fillColor=none;html=1;fontSize=24;fontStyle=1;verticalAlign=middle;align=left;shadow=0;glass=0;comic=0;opacity=30;fontColor=#808080;" vertex="1" parent="XQVo9xtHHpdXn1KIrFOA-0">
          <mxGeometry width="560" height="40" as="geometry" />
        </mxCell>
        <mxCell id="XQVo9xtHHpdXn1KIrFOA-2" value="" style="line;strokeWidth=2;html=1;shadow=0;glass=0;comic=0;fillColor=none;fontSize=10;fontColor=#CCCCCC;labelBackgroundColor=none;strokeColor=#CCCCCC;" vertex="1" parent="XQVo9xtHHpdXn1KIrFOA-0">
          <mxGeometry y="35" width="560" height="10" as="geometry" />
        </mxCell>
        <mxCell id="K3lDGoyHATY2oX1RY8wY-0" value="Title/Diagram" parent="MHrPchpe5pD9uzdOe4e_-0" />
        <mxCell id="K3lDGoyHATY2oX1RY8wY-1" value="&lt;font style=&quot;font-size: 12px&quot;&gt;Diagram: Base System Logical Module - Testing - Automated System Test Types&lt;/font&gt;" style="text;strokeColor=none;fillColor=none;html=1;fontSize=24;fontStyle=2;verticalAlign=middle;align=left;shadow=0;glass=0;comic=0;opacity=30;fontColor=#808080;" vertex="1" parent="K3lDGoyHATY2oX1RY8wY-0">
          <mxGeometry x="120" y="660" width="560" height="20" as="geometry" />
        </mxCell>
        <mxCell id="XQVo9xtHHpdXn1KIrFOA-12" value="Legend" parent="MHrPchpe5pD9uzdOe4e_-0" />
        <mxCell id="XQVo9xtHHpdXn1KIrFOA-4" value="" style="rounded=0;whiteSpace=wrap;html=1;fontSize=10;align=left;container=1;collapsible=0;fontColor=#B3B3B3;strokeColor=#B3B3B3;" vertex="1" parent="XQVo9xtHHpdXn1KIrFOA-12">
          <mxGeometry x="489.44" y="170" width="190.56" height="50" as="geometry" />
        </mxCell>
        <mxCell id="XQVo9xtHHpdXn1KIrFOA-5" value="" style="whiteSpace=wrap;html=1;aspect=fixed;fillColor=none;strokeColor=#82b366;fontSize=10;align=left;fontStyle=2;strokeWidth=2;" vertex="1" parent="XQVo9xtHHpdXn1KIrFOA-4">
          <mxGeometry x="10.555801749271124" y="16.666666666666668" width="8.333333333333334" height="8.333333333333334" as="geometry" />
        </mxCell>
        <mxCell id="XQVo9xtHHpdXn1KIrFOA-6" value="" style="whiteSpace=wrap;html=1;aspect=fixed;fillColor=none;strokeColor=#d6b656;fontSize=10;align=left;fontStyle=2;strokeWidth=2;" vertex="1" parent="XQVo9xtHHpdXn1KIrFOA-4">
          <mxGeometry x="10.555801749271124" y="28" width="8.333333333333334" height="8.333333333333334" as="geometry" />
        </mxCell>
        <mxCell id="XQVo9xtHHpdXn1KIrFOA-7" value="" style="whiteSpace=wrap;html=1;aspect=fixed;fillColor=none;strokeColor=#6c8ebf;fontSize=10;align=left;fontStyle=2;strokeWidth=2;" vertex="1" parent="XQVo9xtHHpdXn1KIrFOA-4">
          <mxGeometry x="10.555801749271124" y="39.333333333333336" width="8.333333333333334" height="8.333333333333334" as="geometry" />
        </mxCell>
        <mxCell id="XQVo9xtHHpdXn1KIrFOA-8" value="Internal, System (Shared)&amp;nbsp;" style="text;html=1;strokeColor=none;fillColor=none;align=left;verticalAlign=middle;whiteSpace=wrap;rounded=0;fontSize=10;fontStyle=2;fontColor=#B3B3B3;" vertex="1" parent="XQVo9xtHHpdXn1KIrFOA-4">
          <mxGeometry x="21.11604804664722" y="16.666666666666668" width="169.44395195335275" height="8.333333333333334" as="geometry" />
        </mxCell>
        <mxCell id="XQVo9xtHHpdXn1KIrFOA-9" value="Internal, Organisation Bound&amp;nbsp;" style="text;html=1;strokeColor=none;fillColor=none;align=left;verticalAlign=middle;whiteSpace=wrap;rounded=0;fontSize=10;fontStyle=2;fontColor=#B3B3B3;" vertex="1" parent="XQVo9xtHHpdXn1KIrFOA-4">
          <mxGeometry x="21.11604804664722" y="28" width="169.44395195335275" height="8.333333333333334" as="geometry" />
        </mxCell>
        <mxCell id="XQVo9xtHHpdXn1KIrFOA-10" value="External, Versioned Contracts/Msgs" style="text;html=1;strokeColor=none;fillColor=none;align=left;verticalAlign=middle;whiteSpace=wrap;rounded=0;fontSize=10;fontStyle=2;fontColor=#B3B3B3;" vertex="1" parent="XQVo9xtHHpdXn1KIrFOA-4">
          <mxGeometry x="21.11604804664722" y="39.333333333333336" width="169.44395195335275" height="8.333333333333334" as="geometry" />
        </mxCell>
        <mxCell id="XQVo9xtHHpdXn1KIrFOA-11" value="Legend" style="text;html=1;strokeColor=none;fillColor=none;align=center;verticalAlign=middle;whiteSpace=wrap;rounded=0;fontSize=10;fontStyle=5;fontColor=#B3B3B3;" vertex="1" parent="XQVo9xtHHpdXn1KIrFOA-4">
          <mxGeometry x="21.111603498542262" width="126.66962099125365" height="16.666666666666668" as="geometry" />
        </mxCell>
        <mxCell id="XQVo9xtHHpdXn1KIrFOA-13" value="Boxes" parent="MHrPchpe5pD9uzdOe4e_-0" />
        <mxCell id="6oV5lopjNsyYedhPLHXI-2" value="Unit Testing" style="rounded=0;whiteSpace=wrap;html=1;strokeColor=#666666;strokeWidth=1;fillColor=#f5f5f5;fontSize=12;fontColor=#333333;align=center;" vertex="1" parent="XQVo9xtHHpdXn1KIrFOA-13">
          <mxGeometry x="120" y="230" width="80" height="40" as="geometry" />
        </mxCell>
        <mxCell id="6oV5lopjNsyYedhPLHXI-3" value="Behavioural / Functional Testing" style="rounded=0;whiteSpace=wrap;html=1;strokeColor=#666666;strokeWidth=1;fillColor=#f5f5f5;fontSize=12;fontColor=#333333;align=center;" vertex="1" parent="XQVo9xtHHpdXn1KIrFOA-13">
          <mxGeometry x="120" y="330" width="80" height="40" as="geometry" />
        </mxCell>
        <mxCell id="6oV5lopjNsyYedhPLHXI-4" value="Security Penetration Testing" style="rounded=0;whiteSpace=wrap;html=1;strokeColor=#666666;strokeWidth=1;fillColor=#f5f5f5;fontSize=12;fontColor=#333333;align=center;" vertex="1" parent="XQVo9xtHHpdXn1KIrFOA-13">
          <mxGeometry x="120" y="380" width="80" height="40" as="geometry" />
        </mxCell>
        <mxCell id="6oV5lopjNsyYedhPLHXI-5" value="Performance Testing" style="rounded=0;whiteSpace=wrap;html=1;strokeColor=#666666;strokeWidth=1;fillColor=#f5f5f5;fontSize=12;fontColor=#333333;align=center;" vertex="1" parent="XQVo9xtHHpdXn1KIrFOA-13">
          <mxGeometry x="120" y="530" width="80" height="40" as="geometry" />
        </mxCell>
        <mxCell id="6oV5lopjNsyYedhPLHXI-6" value="Disaster Recovery &lt;br style=&quot;font-size: 12px;&quot;&gt;Testing" style="rounded=0;whiteSpace=wrap;html=1;strokeColor=#666666;strokeWidth=1;fillColor=#f5f5f5;fontSize=12;fontColor=#333333;align=center;" vertex="1" parent="XQVo9xtHHpdXn1KIrFOA-13">
          <mxGeometry x="120" y="580" width="80" height="40" as="geometry" />
        </mxCell>
        <mxCell id="XQVo9xtHHpdXn1KIrFOA-14" value="Copy Testing" style="rounded=0;whiteSpace=wrap;html=1;strokeColor=#666666;strokeWidth=1;fillColor=#f5f5f5;fontSize=12;fontColor=#333333;align=center;" vertex="1" parent="XQVo9xtHHpdXn1KIrFOA-13">
          <mxGeometry x="120" y="430" width="80" height="40" as="geometry" />
        </mxCell>
        <mxCell id="XQVo9xtHHpdXn1KIrFOA-15" value="Integration Testing" style="rounded=0;whiteSpace=wrap;html=1;strokeColor=#666666;strokeWidth=1;fillColor=#f5f5f5;fontSize=12;fontColor=#333333;align=center;" vertex="1" parent="XQVo9xtHHpdXn1KIrFOA-13">
          <mxGeometry x="120" y="280" width="80" height="40" as="geometry" />
        </mxCell>
        <mxCell id="XdS--ZP5lyxzAnsVvoPQ-1" value="Availability Testing" style="rounded=0;whiteSpace=wrap;html=1;strokeColor=#666666;strokeWidth=1;fillColor=#f5f5f5;fontSize=12;fontColor=#333333;align=center;" vertex="1" parent="XQVo9xtHHpdXn1KIrFOA-13">
          <mxGeometry x="120" y="480" width="80" height="40" as="geometry" />
        </mxCell>
        <mxCell id="XQVo9xtHHpdXn1KIrFOA-23" value="Notes" parent="MHrPchpe5pD9uzdOe4e_-0" />
        <mxCell id="XQVo9xtHHpdXn1KIrFOA-16" value="To test Responsiveness meet stated TTR &amp;amp; TTL requirements upon demand spikes - usually by correctly employing async threaded access to remote systems (including DB), and minimizing payloads." style="shape=note;whiteSpace=wrap;html=1;size=14;verticalAlign=top;align=left;spacingTop=-6;strokeWidth=1;fillColor=none;fontSize=12;strokeColor=#999999;fontColor=#333333;spacingRight=16;" vertex="1" parent="XQVo9xtHHpdXn1KIrFOA-23">
          <mxGeometry x="230" y="530" width="440" height="40" as="geometry" />
        </mxCell>
        <mxCell id="XQVo9xtHHpdXn1KIrFOA-17" value="To ensure Recoverability targets are met by automated regular Backups and Data Restorations work as intended." style="shape=note;whiteSpace=wrap;html=1;size=14;verticalAlign=top;align=left;spacingTop=-6;strokeWidth=1;fillColor=none;fontSize=12;strokeColor=#999999;fontColor=#333333;spacingRight=16;" vertex="1" parent="XQVo9xtHHpdXn1KIrFOA-23">
          <mxGeometry x="230" y="580" width="440" height="40" as="geometry" />
        </mxCell>
        <mxCell id="XQVo9xtHHpdXn1KIrFOA-18" value="To ensure User Interface Copy is meanginful, unambiguous, spelt correctly, and that links do not point to unavailable resources." style="shape=note;whiteSpace=wrap;html=1;size=14;verticalAlign=top;align=left;spacingTop=-6;strokeWidth=1;fillColor=none;fontSize=12;strokeColor=#999999;fontColor=#333333;spacingRight=16;" vertex="1" parent="XQVo9xtHHpdXn1KIrFOA-23">
          <mxGeometry x="230" y="430" width="440" height="40" as="geometry" />
        </mxCell>
        <mxCell id="XQVo9xtHHpdXn1KIrFOA-19" value="To ensure OWASP and NZISM controls are implemented as appropriate for the data classification of the resources managed by the system." style="shape=note;whiteSpace=wrap;html=1;size=14;verticalAlign=top;align=left;spacingTop=-6;strokeWidth=1;fillColor=none;fontSize=12;strokeColor=#999999;fontColor=#333333;spacingRight=16;" vertex="1" parent="XQVo9xtHHpdXn1KIrFOA-23">
          <mxGeometry x="230" y="380" width="440" height="40" as="geometry" />
        </mxCell>
        <mxCell id="XQVo9xtHHpdXn1KIrFOA-20" value="To ensure Functional Completeness, Correctness and Appropriateness quality targets are met" style="shape=note;whiteSpace=wrap;html=1;size=14;verticalAlign=top;align=left;spacingTop=-6;strokeWidth=1;fillColor=none;fontSize=12;strokeColor=#999999;fontColor=#333333;spacingRight=16;" vertex="1" parent="XQVo9xtHHpdXn1KIrFOA-23">
          <mxGeometry x="230" y="330" width="440" height="40" as="geometry" />
        </mxCell>
        <mxCell id="XQVo9xtHHpdXn1KIrFOA-21" value="To ensure deployment systems work correctly to not only deploy the system, but also the certificates and other artifacts required." style="shape=note;whiteSpace=wrap;html=1;size=14;verticalAlign=top;align=left;spacingTop=-6;strokeWidth=1;fillColor=none;fontSize=12;strokeColor=#999999;fontColor=#333333;spacingRight=16;" vertex="1" parent="XQVo9xtHHpdXn1KIrFOA-23">
          <mxGeometry x="230" y="280" width="440" height="40" as="geometry" />
        </mxCell>
        <mxCell id="XQVo9xtHHpdXn1KIrFOA-22" value="To ensure the logic of the system -- independently from all other considerations (performance, integration, resources, data -- is correct." style="shape=note;whiteSpace=wrap;html=1;size=14;verticalAlign=top;align=left;spacingTop=-6;strokeWidth=1;fillColor=none;fontSize=12;strokeColor=#999999;fontColor=#333333;spacingRight=16;" vertex="1" parent="XQVo9xtHHpdXn1KIrFOA-23">
          <mxGeometry x="230" y="230" width="440" height="40" as="geometry" />
        </mxCell>
        <mxCell id="XdS--ZP5lyxzAnsVvoPQ-0" value="To test Availability meet stated requirements upon demand spikes - usually by correctly employing dynamic horizontal scaling." style="shape=note;whiteSpace=wrap;html=1;size=14;verticalAlign=top;align=left;spacingTop=-6;strokeWidth=1;fillColor=none;fontSize=12;strokeColor=#999999;fontColor=#333333;spacingRight=16;" vertex="1" parent="XQVo9xtHHpdXn1KIrFOA-23">
          <mxGeometry x="230" y="480" width="440" height="40" as="geometry" />
        </mxCell>
      </root>
    </mxGraphModel>
  </diagram>
</mxfile>
